<mxfile host="app.diagrams.net" modified="2023-03-14T05:51:45.848Z" agent="5.0 (Windows NT 10.0; Win64; x64) AppleWebKit/537.36 (KHTML, like Gecko) Chrome/111.0.0.0 Safari/537.36" etag="dARjIQ_xo72YaAP5YchQ" version="20.8.20" type="github">
  <diagram name="Page-1" id="PlHNQX-Igk5ZW_zHONLU">
    <mxGraphModel dx="1221" dy="640" grid="1" gridSize="10" guides="1" tooltips="1" connect="1" arrows="1" fold="1" page="1" pageScale="1" pageWidth="850" pageHeight="1100" math="0" shadow="0">
      <root>
        <mxCell id="0" />
        <mxCell id="1" parent="0" />
        <mxCell id="ml8tz-fhFnYBEZmRWHAL-1" value="" style="ellipse;html=1;shape=startState;fillColor=#000000;strokeColor=#ff0000;" vertex="1" parent="1">
          <mxGeometry x="410" y="80" width="30" height="30" as="geometry" />
        </mxCell>
        <mxCell id="ml8tz-fhFnYBEZmRWHAL-2" value="" style="edgeStyle=orthogonalEdgeStyle;html=1;verticalAlign=bottom;endArrow=open;endSize=8;strokeColor=#ff0000;rounded=0;" edge="1" source="ml8tz-fhFnYBEZmRWHAL-1" parent="1">
          <mxGeometry relative="1" as="geometry">
            <mxPoint x="425" y="170" as="targetPoint" />
          </mxGeometry>
        </mxCell>
        <mxCell id="ml8tz-fhFnYBEZmRWHAL-3" value="Complaint" style="html=1;" vertex="1" parent="1">
          <mxGeometry x="370" y="170" width="110" height="50" as="geometry" />
        </mxCell>
        <mxCell id="ml8tz-fhFnYBEZmRWHAL-4" value="Scheduled&lt;br&gt;Project" style="html=1;" vertex="1" parent="1">
          <mxGeometry x="370" y="280" width="110" height="50" as="geometry" />
        </mxCell>
        <mxCell id="ml8tz-fhFnYBEZmRWHAL-8" value="" style="edgeStyle=orthogonalEdgeStyle;html=1;verticalAlign=bottom;endArrow=open;endSize=8;strokeColor=#ff0000;rounded=0;exitX=0.5;exitY=1;exitDx=0;exitDy=0;entryX=0.5;entryY=0;entryDx=0;entryDy=0;" edge="1" parent="1" source="ml8tz-fhFnYBEZmRWHAL-3" target="ml8tz-fhFnYBEZmRWHAL-4">
          <mxGeometry relative="1" as="geometry">
            <mxPoint x="425" y="280" as="targetPoint" />
            <mxPoint x="425" y="220" as="sourcePoint" />
          </mxGeometry>
        </mxCell>
        <mxCell id="ml8tz-fhFnYBEZmRWHAL-10" value="" style="edgeStyle=orthogonalEdgeStyle;html=1;verticalAlign=bottom;endArrow=open;endSize=8;strokeColor=#ff0000;rounded=0;exitX=0.75;exitY=1;exitDx=0;exitDy=0;entryX=0.439;entryY=-0.08;entryDx=0;entryDy=0;entryPerimeter=0;" edge="1" parent="1" source="ml8tz-fhFnYBEZmRWHAL-4" target="ml8tz-fhFnYBEZmRWHAL-11">
          <mxGeometry relative="1" as="geometry">
            <mxPoint x="510" y="410" as="targetPoint" />
            <mxPoint x="445" y="240" as="sourcePoint" />
          </mxGeometry>
        </mxCell>
        <mxCell id="ml8tz-fhFnYBEZmRWHAL-11" value="Project Started" style="html=1;" vertex="1" parent="1">
          <mxGeometry x="510" y="410" width="110" height="50" as="geometry" />
        </mxCell>
        <mxCell id="ml8tz-fhFnYBEZmRWHAL-12" value="" style="edgeStyle=orthogonalEdgeStyle;html=1;verticalAlign=bottom;endArrow=open;endSize=8;strokeColor=#ff0000;rounded=0;exitX=0.25;exitY=1;exitDx=0;exitDy=0;entryX=0.5;entryY=0;entryDx=0;entryDy=0;" edge="1" parent="1" source="ml8tz-fhFnYBEZmRWHAL-4" target="ml8tz-fhFnYBEZmRWHAL-13">
          <mxGeometry relative="1" as="geometry">
            <mxPoint x="320" y="420" as="targetPoint" />
            <mxPoint x="455" y="250" as="sourcePoint" />
          </mxGeometry>
        </mxCell>
        <mxCell id="ml8tz-fhFnYBEZmRWHAL-13" value="Rescheduled Project" style="html=1;" vertex="1" parent="1">
          <mxGeometry x="220" y="410" width="120" height="50" as="geometry" />
        </mxCell>
        <mxCell id="ml8tz-fhFnYBEZmRWHAL-14" value="complaint received" style="text;html=1;align=center;verticalAlign=middle;resizable=0;points=[];autosize=1;strokeColor=none;fillColor=none;" vertex="1" parent="1">
          <mxGeometry x="425" y="120" width="120" height="30" as="geometry" />
        </mxCell>
        <mxCell id="ml8tz-fhFnYBEZmRWHAL-15" value="[supervisor assigned] &lt;br&gt;resource allotment and priority&amp;nbsp;" style="text;html=1;align=center;verticalAlign=middle;resizable=0;points=[];autosize=1;strokeColor=none;fillColor=none;" vertex="1" parent="1">
          <mxGeometry x="420" y="230" width="190" height="40" as="geometry" />
        </mxCell>
        <mxCell id="ml8tz-fhFnYBEZmRWHAL-16" value="[no discrepancy in resource availability]&lt;br&gt;project started on time" style="text;html=1;align=center;verticalAlign=middle;resizable=0;points=[];autosize=1;strokeColor=none;fillColor=none;" vertex="1" parent="1">
          <mxGeometry x="460" y="330" width="230" height="40" as="geometry" />
        </mxCell>
        <mxCell id="ml8tz-fhFnYBEZmRWHAL-17" value="[resources unavailabe after resource updation]&lt;br&gt;project rescheduled" style="text;html=1;align=center;verticalAlign=middle;resizable=0;points=[];autosize=1;strokeColor=none;fillColor=none;" vertex="1" parent="1">
          <mxGeometry x="130" y="330" width="270" height="40" as="geometry" />
        </mxCell>
        <mxCell id="ml8tz-fhFnYBEZmRWHAL-18" value="" style="edgeStyle=orthogonalEdgeStyle;html=1;verticalAlign=bottom;endArrow=open;endSize=8;strokeColor=#ff0000;rounded=0;exitX=1;exitY=0.5;exitDx=0;exitDy=0;entryX=0;entryY=0.5;entryDx=0;entryDy=0;" edge="1" parent="1" source="ml8tz-fhFnYBEZmRWHAL-13" target="ml8tz-fhFnYBEZmRWHAL-11">
          <mxGeometry relative="1" as="geometry">
            <mxPoint x="465" y="320" as="targetPoint" />
            <mxPoint x="465" y="260" as="sourcePoint" />
          </mxGeometry>
        </mxCell>
        <mxCell id="ml8tz-fhFnYBEZmRWHAL-19" value="[all resources available &lt;br&gt;after resource updation]" style="text;html=1;align=center;verticalAlign=middle;resizable=0;points=[];autosize=1;strokeColor=none;fillColor=none;" vertex="1" parent="1">
          <mxGeometry x="350" y="400" width="150" height="40" as="geometry" />
        </mxCell>
        <mxCell id="ml8tz-fhFnYBEZmRWHAL-20" value="project started" style="text;html=1;align=center;verticalAlign=middle;resizable=0;points=[];autosize=1;strokeColor=none;fillColor=none;" vertex="1" parent="1">
          <mxGeometry x="375" y="430" width="100" height="30" as="geometry" />
        </mxCell>
        <mxCell id="ml8tz-fhFnYBEZmRWHAL-21" value="" style="edgeStyle=orthogonalEdgeStyle;html=1;verticalAlign=bottom;endArrow=open;endSize=8;strokeColor=#ff0000;rounded=0;exitX=0.675;exitY=1;exitDx=0;exitDy=0;exitPerimeter=0;entryX=0;entryY=0.5;entryDx=0;entryDy=0;" edge="1" parent="1" source="ml8tz-fhFnYBEZmRWHAL-13" target="ml8tz-fhFnYBEZmRWHAL-13">
          <mxGeometry relative="1" as="geometry">
            <mxPoint x="250" y="530" as="targetPoint" />
            <mxPoint x="475" y="270" as="sourcePoint" />
            <Array as="points">
              <mxPoint x="170" y="490" />
            </Array>
          </mxGeometry>
        </mxCell>
        <mxCell id="ml8tz-fhFnYBEZmRWHAL-22" value="[resources unavailable after resource updation]&lt;br&gt;project rescheduled" style="text;html=1;align=center;verticalAlign=middle;resizable=0;points=[];autosize=1;strokeColor=none;fillColor=none;" vertex="1" parent="1">
          <mxGeometry x="90" y="485" width="270" height="40" as="geometry" />
        </mxCell>
        <mxCell id="ml8tz-fhFnYBEZmRWHAL-23" value="" style="edgeStyle=orthogonalEdgeStyle;html=1;verticalAlign=bottom;endArrow=open;endSize=8;strokeColor=#ff0000;rounded=0;exitX=0.5;exitY=1;exitDx=0;exitDy=0;entryX=0.5;entryY=0;entryDx=0;entryDy=0;" edge="1" parent="1" source="ml8tz-fhFnYBEZmRWHAL-11" target="ml8tz-fhFnYBEZmRWHAL-24">
          <mxGeometry relative="1" as="geometry">
            <mxPoint x="565" y="550" as="targetPoint" />
            <mxPoint x="485" y="280" as="sourcePoint" />
          </mxGeometry>
        </mxCell>
        <mxCell id="ml8tz-fhFnYBEZmRWHAL-24" value="Finished Project" style="html=1;" vertex="1" parent="1">
          <mxGeometry x="510" y="540" width="110" height="50" as="geometry" />
        </mxCell>
        <mxCell id="ml8tz-fhFnYBEZmRWHAL-25" value="" style="edgeStyle=orthogonalEdgeStyle;html=1;verticalAlign=bottom;endArrow=open;endSize=8;strokeColor=#ff0000;rounded=0;exitX=0.5;exitY=1;exitDx=0;exitDy=0;" edge="1" parent="1" source="ml8tz-fhFnYBEZmRWHAL-24" target="ml8tz-fhFnYBEZmRWHAL-26">
          <mxGeometry relative="1" as="geometry">
            <mxPoint x="565" y="660" as="targetPoint" />
            <mxPoint x="495" y="290" as="sourcePoint" />
          </mxGeometry>
        </mxCell>
        <mxCell id="ml8tz-fhFnYBEZmRWHAL-26" value="" style="ellipse;html=1;shape=endState;fillColor=#000000;strokeColor=#ff0000;" vertex="1" parent="1">
          <mxGeometry x="550" y="645" width="30" height="30" as="geometry" />
        </mxCell>
        <mxCell id="ml8tz-fhFnYBEZmRWHAL-27" value="project ongoing" style="text;html=1;align=center;verticalAlign=middle;resizable=0;points=[];autosize=1;strokeColor=none;fillColor=none;" vertex="1" parent="1">
          <mxGeometry x="555" y="495" width="110" height="30" as="geometry" />
        </mxCell>
      </root>
    </mxGraphModel>
  </diagram>
</mxfile>
